<svg version="1.2" xmlns="http://www.w3.org/2000/svg" viewBox="0 0 520 176" width="520" height="176">
	<title>Flight Logo YELLOW</title>
	<style>
		.s0 { fill: #ffce06 } 
		.s1 { fill: #ffffff } 
	</style>
	<g>
		<path class="s0" d="m428.4 84.8c-118.5-0.5-237.4-3.6-355.2-17.9 117.8-14.2 236.7-17.3 355.2-17.8 9.9 0 17.9 8 17.9 17.8 0 9.9-8 17.9-17.9 17.9z"/>
		<g>
			<path class="s1" d="m367.4 117.8h-111l-10.8 41.9h-65.3l17.8-68.9q-6.7-0.5-13.4-0.9l-20.9 81h92.4l10.8-41.9h111.1l8.2-32q-6.7 0-13.5-0.1c0 0-5.4 20.9-5.4 20.9z"/>
			<path class="s1" d="m217.3 16.2h191.9l-17.2 20.6q7.6 0 15.4-0.1l26.5-31.7h-227.2l-9.9 38.2q6.8-0.4 13.8-0.8l6.7-26.2z"/>
		</g>
	</g>
</svg>